<svg width="24" height="24" viewBox="0 0 24 24" fill="none" xmlns="http://www.w3.org/2000/svg">
<rect x="1" y="1" width="22" height="22" rx="5" fill="#78ABA8"/>
<path d="M15.8462 6.6C15.8462 6.26863 15.5707 6 15.2308 6C14.8909 6 14.6154 6.26863 14.6154 6.6V15.9515L13.5121 14.8758C13.2718 14.6414 12.8821 14.6414 12.6418 14.8758C12.4015 15.1101 12.4015 15.49 12.6418 15.7243L14.7956 17.8243C15.0359 18.0586 15.4256 18.0586 15.6659 17.8243L17.8198 15.7243C18.0601 15.49 18.0601 15.1101 17.8198 14.8758C17.5795 14.6414 17.1898 14.6414 16.9495 14.8758L15.8462 15.9515V6.6ZM6.61539 7.2C6.27552 7.2 6 7.46863 6 7.8C6 8.13137 6.27552 8.4 6.61539 8.4H12.7692C13.1091 8.4 13.3846 8.13137 13.3846 7.8C13.3846 7.46863 13.1091 7.2 12.7692 7.2H6.61539ZM8.46154 10.2C8.46154 9.86864 8.73706 9.6 9.07693 9.6H12.7692C13.1091 9.6 13.3846 9.86864 13.3846 10.2C13.3846 10.5314 13.1091 10.8 12.7692 10.8H9.07693C8.73706 10.8 8.46154 10.5314 8.46154 10.2ZM11.5385 12C11.1986 12 10.9231 12.2686 10.9231 12.6C10.9231 12.9314 11.1986 13.2 11.5385 13.2H12.7692C13.1091 13.2 13.3846 12.9314 13.3846 12.6C13.3846 12.2686 13.1091 12 12.7692 12H11.5385Z" fill="#FCFFEB"/>
</svg>
