<svg width="22" height="22" viewBox="0 0 22 22" fill="none" xmlns="http://www.w3.org/2000/svg">
<rect width="22" height="22" rx="5" fill="#088395"/>
<path d="M15.5 16.25C15.5 16.5722 15.2388 16.8333 14.9167 16.8333C14.5945 16.8333 14.3333 16.5722 14.3333 16.25V7.15829L13.2875 8.20415C13.0597 8.43196 12.6903 8.43196 12.4625 8.20415C12.2347 7.97634 12.2347 7.607 12.4625 7.37919L14.5042 5.33752C14.732 5.10972 15.1013 5.10972 15.3291 5.33752L17.3708 7.37919C17.5986 7.607 17.5986 7.97634 17.3708 8.20415C17.143 8.43196 16.7736 8.43196 16.5458 8.20415L15.5 7.15829V16.25ZM6.74999 15.6667C6.42783 15.6667 6.16666 15.4055 6.16666 15.0833C6.16666 14.7612 6.42783 14.5 6.74999 14.5H12.5833C12.9055 14.5 13.1667 14.7612 13.1667 15.0833C13.1667 15.4055 12.9055 15.6667 12.5833 15.6667H6.74999ZM8.49999 12.75C8.49999 13.0722 8.76116 13.3333 9.08332 13.3333H12.5833C12.9055 13.3333 13.1667 13.0722 13.1667 12.75C13.1667 12.4278 12.9055 12.1667 12.5833 12.1667H9.08332C8.76116 12.1667 8.49999 12.4278 8.49999 12.75ZM11.4167 11C11.0945 11 10.8333 10.7388 10.8333 10.4167C10.8333 10.0945 11.0945 9.83334 11.4167 9.83334H12.5833C12.9055 9.83334 13.1667 10.0945 13.1667 10.4167C13.1667 10.7388 12.9055 11 12.5833 11H11.4167Z" fill="#FCFFEB"/>
</svg>
