<svg width="22" height="22" viewBox="0 0 22 22" fill="none" xmlns="http://www.w3.org/2000/svg">
<rect width="22" height="22" rx="5" fill="#78ABA8"/>
<path d="M15.5 16.25C15.5 16.5721 15.2388 16.8333 14.9167 16.8333C14.5945 16.8333 14.3333 16.5721 14.3333 16.25V7.15825L13.2875 8.20411C13.0597 8.43191 12.6903 8.43191 12.4625 8.20411C12.2347 7.9763 12.2347 7.60695 12.4625 7.37915L14.5042 5.33748C14.732 5.10968 15.1013 5.10968 15.3291 5.33748L17.3708 7.37915C17.5986 7.60695 17.5986 7.9763 17.3708 8.20411C17.143 8.43191 16.7736 8.43191 16.5458 8.20411L15.5 7.15825V16.25ZM6.74999 15.6666C6.42783 15.6666 6.16666 15.4055 6.16666 15.0833C6.16666 14.7611 6.42783 14.5 6.74999 14.5H12.5833C12.9055 14.5 13.1667 14.7611 13.1667 15.0833C13.1667 15.4055 12.9055 15.6666 12.5833 15.6666H6.74999ZM8.49999 12.75C8.49999 13.0721 8.76116 13.3333 9.08332 13.3333H12.5833C12.9055 13.3333 13.1667 13.0721 13.1667 12.75C13.1667 12.4278 12.9055 12.1666 12.5833 12.1666H9.08332C8.76116 12.1666 8.49999 12.4278 8.49999 12.75ZM11.4167 11C11.0945 11 10.8333 10.7388 10.8333 10.4166C10.8333 10.0945 11.0945 9.83329 11.4167 9.83329H12.5833C12.9055 9.83329 13.1667 10.0945 13.1667 10.4166C13.1667 10.7388 12.9055 11 12.5833 11H11.4167Z" fill="#FCFFEB"/>
</svg>
